<svg xmlns="http://www.w3.org/2000/svg" xmlns:xlink="http://www.w3.org/1999/xlink" viewBox="0 0 532.12 66.03"><defs><style>.cls-1{fill:url(#linear-gradient);}.cls-2{fill:#7a869a;}.cls-3{fill:#505f79;}</style><linearGradient id="linear-gradient" x1="28.12" y1="35.05" x2="11.24" y2="64.29" gradientUnits="userSpaceOnUse"><stop offset="0" stop-color="#505f79"/><stop offset="0.92" stop-color="#7a869a"/></linearGradient></defs><title>Atlassian-horizontal-neutral</title><g id="Layer_2" data-name="Layer 2"><g id="Blue"><path class="cls-1" d="M19.35,30.11a1.86,1.86,0,0,0-3.16.34l-16,32a1.91,1.91,0,0,0,1.71,2.77H24.19a1.84,1.84,0,0,0,1.71-1.06C30.7,54.22,27.79,39.13,19.35,30.11Z"/><path class="cls-2" d="M31.09,1a42.19,42.19,0,0,0-2.46,41.65L39.36,64.15a1.91,1.91,0,0,0,1.71,1.06H63.34a1.91,1.91,0,0,0,1.71-2.77L34.34,1A1.81,1.81,0,0,0,31.09,1Z"/><path class="cls-3" d="M292.31,26.67c0,7.92,3.67,14.21,18,17,8.57,1.8,10.37,3.18,10.37,6s-1.8,4.57-7.84,4.57a44.24,44.24,0,0,1-20.82-5.63v12.9c4.33,2.12,10,4.49,20.66,4.49,15,0,21-6.7,21-16.66m0,0c0-9.39-5-13.8-19-16.82-7.76-1.71-9.64-3.43-9.64-5.88,0-3.1,2.78-4.41,7.92-4.41,6.21,0,12.33,1.88,18.13,4.49V14.42a41,41,0,0,0-17.72-3.67c-13.88,0-21.07,6-21.07,15.92"/><polygon class="cls-3" points="485.33 11.56 485.33 65.21 496.76 65.21 496.76 24.3 501.58 35.16 517.75 65.21 532.12 65.21 532.12 11.56 520.69 11.56 520.69 46.18 516.36 36.14 503.38 11.56 485.33 11.56"/><rect class="cls-3" x="400.13" y="11.56" width="12.49" height="53.65"/><path class="cls-3" d="M385.72,49.37c0-9.39-5-13.8-19-16.82-7.76-1.71-9.64-3.43-9.64-5.88,0-3.1,2.78-4.41,7.92-4.41,6.21,0,12.33,1.88,18.13,4.49V14.42a41,41,0,0,0-17.72-3.67c-13.88,0-21.07,6-21.07,15.92,0,7.92,3.67,14.21,18,17,8.57,1.8,10.37,3.18,10.37,6s-1.8,4.57-7.84,4.57a44.24,44.24,0,0,1-20.82-5.63v12.9c4.33,2.12,10,4.49,20.66,4.49,15,0,21-6.7,21-16.66"/><polygon class="cls-3" points="195.26 11.56 195.26 65.21 220.94 65.21 224.99 53.61 207.84 53.61 207.84 11.56 195.26 11.56"/><polygon class="cls-3" points="144.53 11.56 144.53 23.16 158.41 23.16 158.41 65.21 170.99 65.21 170.99 23.16 185.85 23.16 185.85 11.56 144.53 11.56"/><path class="cls-3" d="M126.3,11.56H109.82L91.11,65.21H105.4l2.65-9a35.51,35.51,0,0,0,20,0l2.65,9H145ZM118.06,46.5a24.4,24.4,0,0,1-6.87-1l6.87-23.42,6.87,23.42A24.4,24.4,0,0,1,118.06,46.5Z"/><path class="cls-3" d="M265.21,11.56H248.73L230,65.21h14.29l2.65-9a35.51,35.51,0,0,0,20,0l2.65,9h14.29ZM257,46.5a24.4,24.4,0,0,1-6.87-1L257,22.1l6.87,23.42A24.4,24.4,0,0,1,257,46.5Z"/><path class="cls-3" d="M457.64,11.56H441.17L422.46,65.21h14.29l2.65-9a35.51,35.51,0,0,0,20,0l2.65,9h14.29ZM449.4,46.5a24.4,24.4,0,0,1-6.87-1L449.4,22.1l6.87,23.42A24.4,24.4,0,0,1,449.4,46.5Z"/></g></g></svg>