<?xml version="1.0" encoding="UTF-8"?>
<svg width="194px" height="29px" viewBox="0 0 194 29" version="1.1" xmlns="http://www.w3.org/2000/svg" xmlns:xlink="http://www.w3.org/1999/xlink">
    <!-- Generator: Sketch 50.2 (55047) - http://www.bohemiancoding.com/sketch -->
    <title>Bitbucket-blue</title>
    <desc>Created with Sketch.</desc>
    <defs>
        <linearGradient x1="108.63338%" y1="13.818022%" x2="46.9265964%" y2="78.7761408%" id="linearGradient-1">
            <stop stop-color="#0052CC" offset="18%"></stop>
            <stop stop-color="#2684FF" offset="100%"></stop>
        </linearGradient>
    </defs>
    <g id="Blog" stroke="none" stroke-width="1" fill="none" fill-rule="evenodd">
        <g id="Search" transform="translate(-108.000000, -19.000000)">
            <g id="Nav">
                <g id="Bitbucket-blue" transform="translate(108.000000, 19.000000)">
                    <path d="M51.3860225,2.0753125 C56.5259326,2.0753125 59.0195955,4.70796875 59.0195955,8.935625 C59.0195955,12.1075 57.637618,14.0378125 54.7995506,14.7582812 C58.5226067,15.3971875 60.3623371,17.50875 60.3623371,21.2153125 C60.3623371,25.4021875 57.637618,28.275 52.0007191,28.275 L41.603191,28.275 L41.603191,2.0753125 L51.3860225,2.0753125 Z M45.0559551,5.50546875 L45.0559551,13.3173437 L50.9239101,13.3173437 C54.1848539,13.3173437 55.5275955,11.763125 55.5275955,9.23921875 C55.5275955,6.7153125 54.0715056,5.491875 50.9239101,5.491875 L45.0559551,5.50546875 Z M45.0559551,16.511875 L45.0559551,24.668125 L52.1140674,24.668125 C55.4142472,24.668125 56.909573,23.4310937 56.909573,20.7984375 C56.909573,18.0071875 55.4883596,16.49375 52.0399551,16.49375 L45.0559551,16.511875 Z" id="Shape" fill="#253858" fill-rule="nonzero"></path>
                    <path d="M66.0035955,0.6796875 C66.6266849,0.633343792 67.2384337,0.870487183 67.680151,1.32960141 C68.1218684,1.78871564 68.3500258,2.42455797 68.3054382,3.0721875 C68.3054382,4.39352876 67.2748681,5.4646875 66.0035955,5.4646875 C64.7323229,5.4646875 63.7017528,4.39352876 63.7017528,3.0721875 C63.6571652,2.42455797 63.8853227,1.78871564 64.32704,1.32960141 C64.7687573,0.870487183 65.3805061,0.633343792 66.0035955,0.6796875 Z M64.3164494,8.3375 L67.6166292,8.3375 L67.6166292,28.275 L64.3164494,28.275 L64.3164494,8.3375 Z" id="Shape" fill="#253858" fill-rule="nonzero"></path>
                    <path d="M80.2157303,24.921875 C80.9132792,24.9002424 81.606996,24.8061279 82.2865169,24.6409375 L82.2865169,27.94875 C81.5636074,28.1634959 80.8149889,28.2702943 80.0631461,28.2659375 C75.9564494,28.2659375 73.9597753,25.755625 73.9597753,22.0445312 L73.9597753,11.5229687 L70.8514157,11.5229687 L70.8514157,8.35109375 L73.9597753,8.35109375 L73.9597753,4.1053125 L77.1640449,4.1053125 L77.1640449,8.33296875 L82.2647191,8.33296875 L82.2647191,11.5048437 L77.1640449,11.5048437 L77.1640449,21.9720312 C77.1640449,23.725625 78.162382,24.921875 80.2157303,24.921875 Z" id="Shape" fill="#253858" fill-rule="nonzero"></path>
                    <path d="M95.8883146,28.6692187 C93.0894831,28.6692187 90.9402247,27.3551562 89.7849438,24.7632812 L89.7849438,28.2704687 L86.484764,28.2704687 L86.484764,0 L89.8067416,0 L89.8067416,11.9217187 C91.0361348,9.2890625 93.3379775,7.93421875 96.2893933,7.93421875 C101.390067,7.93421875 103.962202,12.4382812 103.962202,18.3017187 C103.944764,23.925 101.259281,28.6692187 95.8883146,28.6692187 Z M95.3869663,11.1242187 C92.4224719,11.1242187 89.8067416,13.0771875 89.8067416,17.5042187 L89.8067416,19.0992187 C89.8067416,23.52625 92.2219326,25.4792187 95.0382022,25.4792187 C98.7612584,25.4792187 100.679461,22.928125 100.679461,18.3017187 C100.644584,13.5167187 98.8048539,11.1242187 95.3869663,11.1242187 Z" id="Shape" fill="#253858" fill-rule="nonzero"></path>
                    <path d="M107.397528,8.33296875 L110.697708,8.33296875 L110.697708,20.390625 C110.697708,23.979375 112.079685,25.574375 115.222921,25.574375 C118.274607,25.574375 120.402067,23.4628125 120.402067,19.4345312 L120.402067,8.33296875 L123.702247,8.33296875 L123.702247,28.2704687 L120.402067,28.2704687 L120.402067,24.9989062 C119.204142,27.306639 116.864584,28.7236728 114.342292,28.6692187 C109.930427,28.6692187 107.397528,25.4973437 107.397528,20.0145312 L107.397528,8.33296875 Z" id="Shape" fill="#253858" fill-rule="nonzero"></path>
                    <path d="M142.230337,27.7539062 C141.079416,28.3928125 139.313798,28.6601562 137.54818,28.6601562 C130.721124,28.6601562 127.521213,24.3554687 127.521213,18.2382812 C127.521213,12.21625 130.703685,7.9115625 137.54818,7.9115625 C139.125065,7.86362979 140.690961,8.19876303 142.121348,8.8903125 L142.121348,12.0621875 C140.758187,11.4011857 139.265406,11.0800098 137.761798,11.1242187 C132.774472,11.1242187 130.742921,14.39125 130.742921,18.2609375 C130.742921,22.130625 132.813708,25.3976562 137.84027,25.3976562 C139.323377,25.4385739 140.801095,25.195899 142.19982,24.6817188 L142.230337,27.7539062 Z" id="Shape" fill="#253858" fill-rule="nonzero"></path>
                    <polygon id="Shape" fill="#253858" fill-rule="nonzero" points="145.992629 28.2704687 145.992629 0 149.292809 0 149.292809 17.671875 157.541079 8.34203125 161.839596 8.34203125 152.819685 18.125 162.218876 28.2704687 157.728539 28.2704687 149.288449 18.940625 149.288449 28.2704687"></polygon>
                    <path d="M173.152629,28.6692187 C165.976809,28.6692187 162.833573,24.3645312 162.833573,18.2473437 C162.833573,12.2253125 166.055281,7.920625 171.88836,7.920625 C177.795551,7.920625 180.171506,12.1890625 180.171506,18.2473437 L180.171506,19.8015625 L166.168629,19.8015625 C166.630742,23.1909375 168.740764,25.3840625 173.265978,25.3840625 C175.255817,25.3836291 177.230138,25.0201444 179.099056,24.3101562 L179.099056,27.4820312 C177.525258,28.3520312 175.110067,28.6692187 173.152629,28.6692187 Z M166.133753,16.8879687 L176.836449,16.8879687 C176.644629,13.1814062 175.031596,11.0653125 171.735775,11.0653125 C168.239416,11.0471875 166.478157,13.3989062 166.133753,16.8653125 L166.133753,16.8879687 Z" id="Shape" fill="#253858" fill-rule="nonzero"></path>
                    <path d="M191.680719,24.921875 C192.378268,24.9002424 193.071985,24.8061279 193.751506,24.6409375 L193.751506,27.94875 C193.028596,28.1634959 192.279978,28.2702943 191.528135,28.2659375 C187.421438,28.2659375 185.424764,25.755625 185.424764,22.0445312 L185.424764,11.5229687 L182.316404,11.5229687 L182.316404,8.35109375 L185.424764,8.35109375 L185.424764,4.1053125 L188.646472,4.1053125 L188.646472,8.33296875 L193.747146,8.33296875 L193.747146,11.5048437 L188.646472,11.5048437 L188.646472,21.9720312 C188.650831,23.725625 189.640449,24.921875 191.680719,24.921875 Z" id="Shape" fill="#253858" fill-rule="nonzero"></path>
                    <polygon id="Shape" points="11.2040449 19.7154687 16.8932584 19.7154687 18.2665169 11.3825 9.6912809 11.3825"></polygon>
                    <path d="M1.30786517,2.8365625 C1.05028746,2.83310954 0.80442388,2.94821819 0.636227202,3.1510106 C0.468030524,3.35380302 0.394717773,3.62352088 0.435955056,3.8878125 L4.13721348,27.241875 C4.23240431,27.8317963 4.72137863,28.2655134 5.29685393,28.2704687 L23.0533034,28.2704687 C23.4852414,28.276247 23.8561335,27.9524274 23.9252135,27.5092187 L27.6264719,3.89234375 C27.6677092,3.62805213 27.5943964,3.35833427 27.4261998,3.15554185 C27.2580031,2.95274944 27.0121395,2.83764079 26.7545618,2.84109375 L1.30786517,2.8365625 Z M16.8932584,19.7154687 L11.2258427,19.7154687 L9.6912809,11.3825 L18.2665169,11.3825 L16.8932584,19.7154687 Z" id="Shape" fill="#2684FF" fill-rule="nonzero"></path>
                    <path d="M26.4493933,11.3825 L18.2665169,11.3825 L16.8932584,19.7154687 L11.2258427,19.7154687 L4.53393258,27.9714063 C4.74603657,28.1620371 5.01645969,28.268042 5.29685393,28.2704688 L23.0576629,28.2704688 C23.4896009,28.276247 23.860493,27.9524274 23.929573,27.5092188 L26.4493933,11.3825 Z" id="Shape" fill="url(#linearGradient-1)" fill-rule="nonzero"></path>
                </g>
            </g>
        </g>
    </g>
</svg>