<?xml version="1.0" encoding="UTF-8"?>
<svg width="20px" height="16px" viewBox="0 0 20 16" version="1.1" xmlns="http://www.w3.org/2000/svg" xmlns:xlink="http://www.w3.org/1999/xlink">
    <!-- Generator: Sketch 49.1 (51147) - http://www.bohemiancoding.com/sketch -->
    <title>Path Copy</title>
    <desc>Created with Sketch.</desc>
    <defs></defs>
    <g id="Page-1" stroke="none" stroke-width="1" fill="none" fill-rule="evenodd">
        <g id="(optional)-Tweet-&lt;140" transform="translate(-590.000000, -204.000000)" fill="#172B4D">
            <path d="M607.9525,207.984618 C607.96125,208.15813 607.965,208.331641 607.965,208.506384 C607.965,213.844639 603.8375,220 596.29,220 C593.9725,220 591.81625,219.331795 590,218.184895 C590.3225,218.221812 590.64875,218.240271 590.97875,218.240271 C592.9025,218.240271 594.67,217.596677 596.07375,216.512537 C594.28,216.479311 592.76375,215.31026 592.2425,213.708045 C592.4925,213.753576 592.74875,213.779419 593.01375,213.779419 C593.38875,213.779419 593.75125,213.728965 594.09375,213.637902 C592.21875,213.265036 590.80375,211.633287 590.80375,209.676665 L590.80375,209.626211 C591.3575,209.928934 591.99,210.109829 592.6625,210.130749 C591.56125,209.408399 590.8375,208.170435 590.8375,206.768805 C590.8375,206.027996 591.04,205.333949 591.3925,204.738348 C593.415,207.18228 596.44,208.790648 599.85,208.958006 C599.78,208.662667 599.74375,208.355022 599.74375,208.037533 C599.74375,205.807722 601.58125,204 603.8475,204 C605.02625,204 606.09375,204.489771 606.8425,205.27365 C607.77625,205.093986 608.655,204.756807 609.44875,204.292878 C609.14,205.237963 608.49125,206.027996 607.64375,206.528842 C608.47375,206.432856 609.265,206.213813 610,205.893862 C609.45125,206.703584 608.755,207.414859 607.9525,207.984618 L607.9525,207.984618 Z" id="Path-Copy"></path>
        </g>
    </g>
</svg>