<?xml version="1.0" encoding="UTF-8"?>
<svg width="119px" height="30px" viewBox="0 0 119 30" version="1.1" xmlns="http://www.w3.org/2000/svg" xmlns:xlink="http://www.w3.org/1999/xlink">
    <!-- Generator: Sketch 49 (51002) - http://www.bohemiancoding.com/sketch -->
    <title>Social icons</title>
    <desc>Created with Sketch.</desc>
    <defs></defs>
    <g id="Page-1" stroke="none" stroke-width="1" fill="none" fill-rule="evenodd">
        <g id="Landing" transform="translate(-972.000000, -22.000000)">
            <g id="Header" transform="translate(108.000000, 19.000000)">
                <g id="Social-icons" transform="translate(864.000000, 3.000000)">
                    <path d="M18.21375,15.005625 L16.111875,15.005625 L16.111875,22.5 L12.9975,22.5 L12.9975,15.005625 L11.5153125,15.005625 L11.5153125,12.358125 L12.9975,12.358125 L12.9975,10.644375 C12.9975,9.4171875 13.5796875,7.5 16.14,7.5 L18.4471875,7.509375 L18.4471875,10.08 L16.7728125,10.08 C16.5,10.08 16.111875,10.215 16.111875,10.8009375 L16.111875,12.358125 L18.4865625,12.358125 L18.21375,15.005625 L18.21375,15.005625 Z M15,0 C6.71625,0 0,6.71625 0,15 C0,23.285625 6.71625,30 15,30 C23.2846875,30 30,23.285625 30,15 C30,6.71625 23.2846875,0 15,0 L15,0 Z" id="Fill-487" fill="#253958"></path>
                    <path d="M65.964375,11.941875 C65.9709375,12.0740625 65.97375,12.20625 65.97375,12.339375 C65.97375,16.40625 62.878125,21.095625 57.2175,21.095625 C55.479375,21.095625 53.8621875,20.5865625 52.5,19.7128125 C52.741875,19.7409375 52.9865625,19.755 53.2340625,19.755 C54.676875,19.755 56.0025,19.2646875 57.0553125,18.43875 C55.71,18.4134375 54.5728125,17.5228125 54.181875,16.3021875 C54.369375,16.336875 54.5615625,16.3565625 54.7603125,16.3565625 C55.0415625,16.3565625 55.3134375,16.318125 55.5703125,16.24875 C54.1640625,15.9646875 53.1028125,14.7215625 53.1028125,13.2309375 L53.1028125,13.1925 C53.518125,13.423125 53.9925,13.5609375 54.496875,13.576875 C53.6709375,13.0265625 53.128125,12.0834375 53.128125,11.015625 C53.128125,10.45125 53.28,9.9225 53.544375,9.46875 C55.06125,11.330625 57.33,12.5559375 59.8875,12.6834375 C59.835,12.4584375 59.8078125,12.2240625 59.8078125,11.9821875 C59.8078125,10.2834375 61.1859375,8.90625 62.885625,8.90625 C63.7696875,8.90625 64.5703125,9.279375 65.131875,9.8765625 C65.8321875,9.7396875 66.49125,9.4828125 67.0865625,9.129375 C66.855,9.849375 66.3684375,10.45125 65.7328125,10.8328125 C66.3553125,10.7596875 66.94875,10.5928125 67.5,10.3490625 C67.0884375,10.9659375 66.56625,11.5078125 65.964375,11.941875 L65.964375,11.941875 Z M60,0 C51.71625,0 45,6.71625 45,15 C45,23.285625 51.71625,30 60,30 C68.28375,30 75,23.285625 75,15 C75,6.71625 68.28375,0 60,0 L60,0 Z" id="Fill-488" fill="#253958"></path>
                    <g id="Group-9" transform="translate(89.000000, 0.000000)">
                        <path d="M14.8678125,12.714375 C14.9840625,12.714375 15.075,12.6834375 15.1425,12.6196875 C15.211875,12.5559375 15.2465625,12.4659375 15.2465625,12.354375 L15.2465625,10.07625 C15.2465625,9.984375 15.211875,9.91125 15.1425,9.855 C15.0721875,9.7978125 14.98125,9.770625 14.8678125,9.770625 C14.76375,9.770625 14.6784375,9.7978125 14.6128125,9.855 C14.5490625,9.91125 14.51625,9.984375 14.51625,10.07625 L14.51625,12.354375 C14.51625,12.4696875 14.5471875,12.5578125 14.6071875,12.6196875 C14.668125,12.6853125 14.754375,12.714375 14.8678125,12.714375" id="Fill-509" fill="#172B4D"></path>
                        <path d="M16.7109375,19.8759375 C16.7109375,19.99875 16.689375,20.085 16.64625,20.1375 C16.6021875,20.1928125 16.5346875,20.22 16.4409375,20.22 C16.3771875,20.22 16.31625,20.2059375 16.258125,20.1778125 C16.1990625,20.1525 16.1390625,20.1046875 16.078125,20.0446875 L16.078125,17.6784375 C16.1296875,17.6259375 16.18125,17.5875 16.2346875,17.56125 C16.2871875,17.5378125 16.3415625,17.5246875 16.395,17.5246875 C16.4971875,17.5246875 16.576875,17.5584375 16.63125,17.6240625 C16.685625,17.6896875 16.7109375,17.7871875 16.7109375,17.9165625 L16.7109375,19.8759375 L16.7109375,19.8759375 Z M16.753125,16.9228125 C16.635,16.9228125 16.51875,16.951875 16.4025,17.011875 C16.2890625,17.0728125 16.1803125,17.1628125 16.078125,17.27625 L16.078125,15.61875 L15.3103125,15.61875 L15.3103125,20.765625 L16.078125,20.765625 L16.078125,20.475 C16.1765625,20.5921875 16.28625,20.6765625 16.4025,20.7309375 C16.5178125,20.788125 16.65,20.8134375 16.7990625,20.8134375 C17.023125,20.8134375 17.1965625,20.7440625 17.3146875,20.5996875 C17.4346875,20.454375 17.4928125,20.25 17.4928125,19.981875 L17.4928125,17.874375 C17.4928125,17.563125 17.4309375,17.326875 17.3034375,17.1646875 C17.176875,17.0034375 16.9940625,16.9228125 16.753125,16.9228125 L16.753125,16.9228125 Z" id="Fill-510" fill="#253958"></path>
                        <polyline id="Fill-511" fill="#253958" points="9.615 16.3678125 10.4990625 16.3678125 10.4990625 20.765625 11.3540625 20.765625 11.3540625 16.3678125 12.24 16.3678125 12.24 15.61875 9.615 15.61875 9.615 16.3678125"></polyline>
                        <path d="M13.9809375,19.8525 C13.9096875,19.935 13.831875,20.0025 13.745625,20.0578125 C13.6603125,20.1103125 13.5890625,20.1365625 13.5346875,20.1365625 C13.4634375,20.1365625 13.411875,20.1178125 13.3790625,20.075625 C13.348125,20.0353125 13.3321875,19.9715625 13.3321875,19.8815625 L13.3321875,16.96875 L12.5728125,16.96875 L12.5728125,20.143125 C12.5728125,20.3709375 12.6178125,20.536875 12.7059375,20.6503125 C12.7959375,20.765625 12.92625,20.8209375 13.1034375,20.8209375 C13.245,20.8209375 13.3921875,20.7825 13.543125,20.7 C13.6959375,20.619375 13.84125,20.5021875 13.9809375,20.3484375 L13.9809375,20.765625 L14.7403125,20.765625 L14.7403125,16.96875 L13.9809375,16.96875 L13.9809375,19.8525" id="Fill-512" fill="#253958"></path>
                        <path d="M22.5,19.595625 C22.5,21.10875 21.2728125,22.336875 19.7596875,22.336875 L10.239375,22.336875 C8.72625,22.336875 7.5,21.10875 7.5,19.595625 L7.5,17.3934375 C7.5,15.8803125 8.72625,14.6521875 10.239375,14.6521875 L19.7596875,14.6521875 C21.2728125,14.6521875 22.5,15.8803125 22.5,17.3934375 L22.5,19.595625 L22.5,19.595625 Z M11.31,7.665 L11.934375,9.931875 L11.994375,9.931875 L12.590625,7.665 L13.5675,7.665 L12.4471875,10.9828125 L12.4471875,13.3340625 L11.48625,13.3340625 L11.48625,11.086875 L10.340625,7.665 L11.31,7.665 L11.31,7.665 Z M13.636875,10.1071875 C13.636875,9.78375 13.7521875,9.525 13.9809375,9.3346875 C14.210625,9.1425 14.5209375,9.046875 14.9090625,9.046875 C15.2625,9.046875 15.5521875,9.148125 15.7790625,9.3496875 C16.003125,9.5503125 16.1165625,9.8146875 16.1165625,10.1315625 L16.1165625,12.2915625 C16.1165625,12.650625 16.0059375,12.9290625 15.785625,13.134375 C15.5634375,13.3378125 15.25875,13.44 14.8696875,13.44 C14.4965625,13.44 14.1975,13.3340625 13.9725,13.123125 C13.749375,12.9121875 13.636875,12.6309375 13.636875,12.275625 L13.636875,10.1071875 L13.636875,10.1071875 Z M16.809375,9.151875 L17.6625,9.151875 L17.6625,12.358125 C17.6625,12.4565625 17.6821875,12.5278125 17.7178125,12.571875 C17.7525,12.6178125 17.8115625,12.639375 17.89125,12.639375 C17.9540625,12.639375 18.03375,12.6103125 18.1303125,12.5521875 C18.2259375,12.49125 18.313125,12.418125 18.3928125,12.32625 L18.3928125,9.151875 L19.2478125,9.151875 L19.2478125,13.3340625 L18.3928125,13.3340625 L18.3928125,12.8709375 C18.23625,13.040625 18.0721875,13.1728125 17.9015625,13.2609375 C17.7309375,13.348125 17.5659375,13.3959375 17.4065625,13.3959375 C17.2078125,13.3959375 17.0596875,13.3321875 16.959375,13.205625 C16.86,13.0828125 16.809375,12.89625 16.809375,12.646875 L16.809375,9.151875 L16.809375,9.151875 Z M15,0 C6.71625,0 0,6.71625 0,15 C0,23.285625 6.71625,30 15,30 C23.2846875,30 30,23.285625 30,15 C30,6.71625 23.2846875,0 15,0 L15,0 Z" id="Fill-513" fill="#253958"></path>
                        <path d="M19.344375,18.3675 L18.673125,18.3675 L18.673125,17.985 C18.673125,17.825625 18.6984375,17.7103125 18.751875,17.64375 C18.8053125,17.5725 18.8915625,17.5378125 19.0115625,17.5378125 C19.126875,17.5378125 19.213125,17.5725 19.2646875,17.64375 C19.3171875,17.7103125 19.344375,17.825625 19.344375,17.985 L19.344375,18.3675 L19.344375,18.3675 Z M18.21375,17.184375 C17.998125,17.3915625 17.89125,17.6625 17.89125,17.9896875 L17.89125,19.695 C17.89125,20.060625 17.990625,20.3484375 18.1846875,20.555625 C18.3796875,20.765625 18.6478125,20.86875 18.9871875,20.86875 C19.365,20.86875 19.65,20.77125 19.8384375,20.5753125 C20.030625,20.3775 20.1253125,20.085 20.1253125,19.695 L20.1253125,19.5009375 L19.344375,19.5009375 L19.344375,19.6725 C19.344375,19.8965625 19.318125,20.0409375 19.269375,20.1065625 C19.21875,20.173125 19.130625,20.2059375 19.005,20.2059375 C18.8840625,20.2059375 18.7978125,20.1675 18.7471875,20.090625 C18.6975,20.011875 18.673125,19.8721875 18.673125,19.6725 L18.673125,18.9590625 L20.1253125,18.9590625 L20.1253125,17.9896875 C20.1253125,17.6296875 20.0315625,17.355 19.845,17.1628125 C19.659375,16.970625 19.3921875,16.875 19.044375,16.875 C18.7040625,16.875 18.4284375,16.9771875 18.21375,17.184375 Z" id="Fill-514" fill="#253958"></path>
                    </g>
                </g>
            </g>
        </g>
    </g>
</svg>