<svg xmlns="http://www.w3.org/2000/svg" viewBox="0 0 25 25"><title>Asset 4</title><path d="M23.1,0H1.8A1.8,1.8,0,0,0,0,1.8V23.2A1.8,1.8,0,0,0,1.8,25H23.1A1.8,1.8,0,0,0,25,23.2V1.8A1.8,1.8,0,0,0,23.1,0Z" style="fill:#8993a4"/><path d="M3.7,9.4H7.4V21.3H3.7Zm1.9-6A2.2,2.2,0,0,1,7.7,5.6,2.1,2.1,0,0,1,5.6,7.7,2.1,2.1,0,0,1,3.4,5.6,2.2,2.2,0,0,1,5.6,3.4" style="fill:#fff"/><path d="M9.7,9.4h3.6V11h0a4.1,4.1,0,0,1,3.6-1.9c3.7,0,4.4,2.4,4.4,5.7v6.5H17.6V15.5c0-1.4,0-3.2-1.9-3.2s-2.3,1.5-2.3,3.1v5.9H9.7Z" style="fill:#fff"/></svg>