<svg xmlns="http://www.w3.org/2000/svg" viewBox="0 0 30 30"><title>Asset 3</title><circle cx="15" cy="15" r="15" style="fill:#8993a4"/><path d="M12.3,22.9A10.2,10.2,0,0,0,22.5,12.6v-.4a8,8,0,0,0,1.8-1.9,6.6,6.6,0,0,1-2,.6,4.5,4.5,0,0,0,1.6-2,6.3,6.3,0,0,1-2.3.8,3.7,3.7,0,0,0-2.7-1.1,3.6,3.6,0,0,0-3.6,3.6,1.9,1.9,0,0,0,.1.8A10.2,10.2,0,0,1,7.9,9.2a4.1,4.1,0,0,0-.4,1.9,3.7,3.7,0,0,0,1.6,3,3.4,3.4,0,0,1-1.7-.5h0a3.6,3.6,0,0,0,2.9,3.5H8.7a3.7,3.7,0,0,0,3.4,2.5,7.2,7.2,0,0,1-4.5,1.5H6.7a10.5,10.5,0,0,0,5.6,1.6" style="fill:#fff"/></svg>