<?xml version="1.0" encoding="UTF-8"?>
<svg width="20px" height="18px" viewBox="0 0 20 18" version="1.1" xmlns="http://www.w3.org/2000/svg" xmlns:xlink="http://www.w3.org/1999/xlink">
    <!-- Generator: Sketch 53.1 (72631) - https://sketchapp.com -->
    <title>twitter-no container</title>
    <desc>Created with Sketch.</desc>
    <g id="Feb-1:-Article-Components" stroke="none" stroke-width="1" fill="none" fill-rule="evenodd">
        <g id="620-Body--Image---Hover-Share" transform="translate(-622.000000, -139.000000)" fill="#FFFFFF">
            <g id="twitter-no-container" transform="translate(622.000000, 139.000000)">
                <path d="M17.9525,4.60016546 C17.96,4.78279537 17.965,4.96542529 17.965,5.15064571 C17.965,10.7681348 13.8375,17.2469636 6.29,17.2469636 C3.9725,17.2469636 1.81625,16.5436441 0,15.3377685 C0.32125,15.3766259 0.6475,15.3960547 0.97875,15.3960547 C2.90125,15.3960547 4.67,14.7173449 6.075,13.5762317 C4.27875,13.5425553 2.76375,12.3133652 2.24125,10.6243623 C2.4925,10.6735817 2.74875,10.6994867 3.01375,10.6994867 C3.3875,10.6994867 3.75,10.6476768 4.095,10.5505332 C2.2175,10.1606636 0.80375,8.44187 0.80375,6.38242623 L0.80375,6.32802583 C1.35625,6.64665675 1.99,6.8383534 2.6625,6.86037261 C1.56125,6.09747175 0.83625,4.79574785 0.83625,3.32175602 C0.83625,2.54201693 1.03875,1.81149725 1.3925,1.18330214 C3.41625,3.75566398 6.44,5.44855267 9.85,5.6260016 C9.78,5.31514216 9.74375,4.990035 9.74375,4.65715635 C9.74375,2.30887235 11.58125,0.4048583 13.84625,0.4048583 C15.0275,0.4048583 16.09375,0.921662114 16.84125,1.74803012 C17.77625,1.55762871 18.655,1.2040261 19.4475,0.717012985 C19.14125,1.70917269 18.49,2.54201693 17.64375,3.06918273 C18.47375,2.96556291 19.26375,2.73759933 20,2.39953969 C19.45,3.25181265 18.75375,4.00046579 17.9525,4.60016546" id="Fill-184"></path>
            </g>
        </g>
    </g>
</svg>